<?xml version="1.0" encoding="utf-8"?>
<!-- Generator: Adobe Illustrator 23.0.0, SVG Export Plug-In . SVG Version: 6.00 Build 0)  -->
<svg version="1.1" id="Layer_1" xmlns="http://www.w3.org/2000/svg" xmlns:xlink="http://www.w3.org/1999/xlink" x="0px" y="0px"
	 viewBox="0 0 202.54 202.54" style="enable-background:new 0 0 202.54 202.54;" xml:space="preserve">
<style type="text/css">
	.st0{fill:#73CDDA;}
	.st1{fill:#8FC969;}
	.st2{fill:#5D7EA2;}
	.st3{fill:#FEFEFE;}
	.st4{fill:#E2CD66;}
	.st5{fill:#58595B;}
</style>
<g id="XMLID_88_">
	<g id="XMLID_186_">
		<path id="XMLID_197_" class="st0" d="M85.26,49.88c-4.2,1.6-7.65,4.36-10.75,7.48c-9.75,9.84-13.73,21.7-12.06,35.45
			c0.22,1.77-0.11,3.21-1.61,4.27c-1.98,1.4-5.15,0.23-5.8-2.64c-1.51-6.61-1.93-13.25-0.87-19.95c0.34-2.15,0.59-4.38,1.39-6.37
			c1.84-4.62-0.29-9.53-6.32-10.17c2.4-3.93,5.24-7.44,8.53-10.52c16.68-15.61,36.25-21.07,58.45-15.69
			c15.39,3.73,27.44,12.64,36.23,25.86c1.45,2.18,1.25,4.09-0.48,5.49c-1.7,1.37-3.69,1.09-5.47-0.84
			c-10.43-11.3-23.34-16.47-38.66-15.67c-0.95,0.05-1.89,0.19-2.83,0.3c-0.15,0.02-0.3,0.13-0.6,0.28c1.29,1.31,2.49,2.6,3.32,4.2
			c2.86,5.51,1.44,12.22-3.46,16.17c-4.67,3.76-11.62,3.7-16.29-0.15c-4.78-3.94-6.14-10.84-3.22-16.23
			c0.22-0.41,0.77-0.73,0.5-1.33c0.03,0.16,0.11,0.19,0.22,0.07c0.03-0.03,0.03-0.1,0.04-0.15C85.43,49.8,85.34,49.84,85.26,49.88z"
			/>
		<path id="XMLID_196_" class="st1" d="M60.74,110.6c3.18-8.72,8.44-12.28,15.7-10.88c6.16,1.19,10.64,6.92,10.44,13.35
			c-0.22,6.99-5.07,11.37-14.19,12.61c2.47,1.75,4.92,3.11,7.55,4.12c7.46,2.85,15.14,3.76,23.02,2.3
			c6.75-1.26,12.86-4.03,18.31-8.22c2.04-1.57,4.07-1.46,5.51,0.23c1.45,1.7,1.31,3.69-0.57,5.5c-6.75,6.5-14.74,10.77-23.82,13
			c-4.74,1.16-6.75,4.77-5.1,9.38c0.58,1.62-0.75,0.9-1.14,0.86c-4.22-0.4-8.42-0.99-12.51-2.2c-11.98-3.55-22.17-9.95-30.14-19.59
			c-11.39-13.78-16.04-29.63-13.98-47.43c0.82-7.13,3.04-13.81,6.13-20.24c0.95-1.99,3.16-2.91,5.03-2.16
			c2.03,0.81,2.75,2.81,2.03,5.15C48.09,82.31,50.76,96.95,60.74,110.6z"/>
		<path id="XMLID_195_" class="st2" d="M144.83,98.08c0.59-11.9-3.31-22.17-11.36-30.87c-4.19-4.54-9.31-7.79-15-10.16
			c-1.63-0.68-2.47-1.86-2.42-3.63c0.05-1.71,1.01-2.78,2.55-3.39c0.95-0.38,1.86-0.15,2.78,0.12c8.58,2.55,16.18,6.84,22.22,13.44
			c3.59,3.92,8.42,4.49,12.13-0.28c2.23,4.22,3.86,8.6,4.96,13.16c3,12.45,2.63,24.8-2.23,36.68c-9.9,24.19-28.12,37.31-54.11,39.7
			c-2.54,0.23-4.19-1.02-4.5-3.19c-0.3-2.09,1.09-3.77,3.5-4.32c13.69-3.07,24.16-10.58,31.3-22.7c1.11-1.89,2.04-3.84,2.9-5.86
			c-0.57-0.53-1.06-0.05-1.55,0.07c-6.39,1.61-12.99-1.79-15.39-7.95c-2.31-5.94,0.3-13.11,5.84-16.02c6.05-3.18,13.11-1.52,16.95,4
			c0.32,0.45,0.67,0.88,1.02,1.32c0.03,0.19-0.03,0.51,0.28,0.42C144.94,98.58,144.94,98.3,144.83,98.08z"/>
		<path id="XMLID_194_" class="st3" d="M85.26,49.88c0.08-0.04,0.17-0.08,0.25-0.12c-0.01,0.05-0.01,0.12-0.04,0.15
			c-0.11,0.11-0.19,0.08-0.22-0.07C85.25,49.84,85.26,49.88,85.26,49.88z"/>
		<path id="XMLID_193_" class="st3" d="M144.83,98.08c0.11,0.22,0.11,0.5-0.12,0.56c-0.31,0.08-0.25-0.23-0.28-0.42
			C144.57,98.17,144.7,98.13,144.83,98.08z"/>
	</g>
	<g id="XMLID_96_">
		<path id="XMLID_184_" class="st4" d="M52.9,32.29c-1.49,0-1.53-0.05-1.52-1.57c0.04-4.6,4.18-8.39,8.6-7.94
			c0.7,0.07,0.87,0.34,0.91,0.96C61.22,28.3,57.5,32.29,52.9,32.29z"/>
		<path id="XMLID_183_" class="st4" d="M149.7,32.29c-4.51,0-8.11-3.68-8.07-8.17c0.01-0.95,0.27-1.36,1.31-1.38
			c4.48-0.07,8.3,3.66,8.25,8.14C151.18,32.18,151.06,32.29,149.7,32.29z"/>
		<path id="XMLID_182_" class="st4" d="M26.81,86.99c-0.71,0.15-0.98-0.17-0.9-0.99c0.34-3.59,3.72-6.58,7.3-6.44
			c0.56,0.02,0.84,0.11,0.79,0.78C33.71,84.04,30.63,86.95,26.81,86.99z"/>
		<path id="XMLID_177_" class="st4" d="M47.08,46.42c-1.55-0.09-3.03-0.53-4.32-1.51c-0.36-0.27-0.4-0.47-0.11-0.85
			c2.23-2.99,7.04-3.62,9.94-1.3c0.42,0.33,0.52,0.54,0.13,1C51.25,45.49,49.38,46.34,47.08,46.42z"/>
		<path id="XMLID_165_" class="st4" d="M156.96,140.18c-0.11,1.8-0.73,3.48-2.09,4.88c-0.38,0.39-0.59,0.43-1.01,0.03
			c-2.64-2.57-2.5-7.76,0.28-10.11c0.44-0.38,0.59-0.1,0.84,0.15C156.2,136.37,156.97,138.29,156.96,140.18z"/>
		<path id="XMLID_164_" class="st4" d="M16.15,99.68c3.53,0.04,6.43,2.34,7.15,5.41c0.16,0.68,0.05,0.98-0.73,1.12
			c-3.5,0.61-7.36-2.01-8-5.5c-0.1-0.54-0.05-0.9,0.61-0.93C15.6,99.76,16.03,99.7,16.15,99.68z"/>
		<path id="XMLID_161_" class="st4" d="M50.6,140.49c-0.07,1.75-0.72,3.24-1.87,4.55c-0.42,0.48-0.67,0.43-1.1,0.01
			c-2.65-2.63-2.68-7.32-0.06-9.94c0.36-0.37,0.57-0.39,0.92-0.01C49.94,136.61,50.67,138.39,50.6,140.49z"/>
		<path id="XMLID_160_" class="st4" d="M159.06,30.12c-0.06,1.5-0.67,3.15-1.98,4.54c-0.34,0.36-0.54,0.49-0.99,0.04
			c-2.65-2.63-2.68-7.29-0.06-9.94c0.45-0.46,0.73-0.38,1.1,0.04C158.37,26.21,159.06,27.84,159.06,30.12z"/>
		<path id="XMLID_159_" class="st4" d="M40.16,150.74c-1.87-0.12-3.54-0.71-4.92-2.03c-0.33-0.32-0.33-0.49,0-0.84
			c2.56-2.74,7.35-2.86,10.03-0.25c0.41,0.4,0.39,0.64,0,1.01C43.83,150.01,42.12,150.67,40.16,150.74z"/>
		<path id="XMLID_158_" class="st4" d="M169.45,79.58c3.79,0.05,6.97,3.05,7.19,6.6c0.04,0.57-0.09,0.81-0.73,0.84
			c-3.7,0.14-7.09-2.9-7.37-6.6C168.48,79.48,169.02,79.55,169.45,79.58z"/>
		<path id="XMLID_157_" class="st4" d="M175.8,103.44c0,2-0.22,2.16-2.09,1.41c-3.16-1.27-4.95-4.56-4.37-7.91
			c0.16-0.89,0.71-0.53,1.11-0.43C173.6,97.25,175.8,100.12,175.8,103.44z"/>
		<path id="XMLID_156_" class="st4" d="M29.98,43.84c-0.02-1.28,0.36-2.44,0.93-3.56c0.24-0.47,0.48-0.58,0.99-0.29
			c3.2,1.81,4.38,6.66,2.38,9.72c-0.36,0.54-0.65,0.38-1.02,0.12C31.14,48.39,30.06,46.39,29.98,43.84z"/>
		<path id="XMLID_155_" class="st4" d="M37.08,116.82c-0.11,2.35-1.4,4.4-3.83,5.77c-0.61,0.35-0.9,0.24-1.17-0.44
			c-1.39-3.48,0.04-7.37,3.34-9.11c0.67-0.35,0.92-0.2,1.15,0.43C36.92,114.41,37.1,115.38,37.08,116.82z"/>
		<path id="XMLID_154_" class="st4" d="M155.13,46.41c-1.86-0.07-3.66-0.85-5.11-2.43c-0.5-0.54-0.59-0.88,0.13-1.38
			c3.06-2.1,7.24-1.54,9.63,1.29c0.48,0.57,0.27,0.82-0.19,1.16C158.49,45.86,156.83,46.41,155.13,46.41z"/>
		<path id="XMLID_153_" class="st4" d="M148.66,40.2c-1.92-0.05-3.58-0.67-4.98-1.96c-0.42-0.39-0.49-0.65-0.04-1.1
			c2.62-2.64,7.5-2.57,10,0.15c0.33,0.36,0.3,0.53-0.02,0.84C152.21,39.45,150.54,40.11,148.66,40.2z"/>
		<path id="XMLID_152_" class="st4" d="M180.2,85.44c0.26-3.51,2.68-6.19,6.04-6.7c1.24-0.19,1.36-0.08,1.31,1.13
			c-0.13,3.47-2.82,6.42-6.19,6.78C180.11,86.79,180.1,86.78,180.2,85.44z"/>
		<path id="XMLID_151_" class="st4" d="M25.82,94.97c0.13-3.66,2.75-6.5,6.32-6.99c0.75-0.1,0.91,0.2,0.95,0.84
			c0.27,3.61-3.02,7.26-6.66,7.33C25.41,96.17,26.02,95.32,25.82,94.97z"/>
		<path id="XMLID_150_" class="st4" d="M22.34,85.73c0.27,0.96-0.26,1.06-1.2,0.94c-3.53-0.46-6.28-3.7-6.15-7.27
			c0.02-0.66,0.28-0.72,0.83-0.7C19.31,78.84,22.31,81.98,22.34,85.73z"/>
		<path id="XMLID_149_" class="st4" d="M161.91,124.39c0.05-0.92,0.36-2.06,0.92-3.16c0.31-0.61,0.59-0.73,1.2-0.34
			c3.05,1.95,4.07,6.61,2.12,9.64c-0.33,0.51-0.56,0.45-1,0.18C163.23,129.54,161.89,127.1,161.91,124.39z"/>
		<path id="XMLID_148_" class="st4" d="M45.17,132.87c-0.08,2.07-0.89,3.88-2.52,5.34c-0.47,0.42-0.71,0.34-1.09-0.1
			c-2.36-2.78-1.74-7.86,1.2-9.95c0.42-0.3,0.59-0.17,0.84,0.16C44.61,129.64,45.12,131.12,45.17,132.87z"/>
		<path id="XMLID_147_" class="st4" d="M28.77,78.01c-1.71-0.05-1.88-0.29-1.35-1.91c1.07-3.22,4.53-5.25,7.92-4.69
			c0.62,0.1,0.64,0.38,0.54,0.87C35.21,75.59,32.11,78.1,28.77,78.01z"/>
		<path id="XMLID_146_" class="st4" d="M35.8,61.06c-0.34-0.05-0.91-0.09-1.45-0.23c-1.9-0.48-1.96-0.64-0.89-2.24
			c1.81-2.7,5.33-3.82,8.38-2.73c0.83,0.3,1.04,0.6,0.55,1.42C40.95,59.73,38.86,61,35.8,61.06z"/>
		<path id="XMLID_145_" class="st4" d="M186.25,99.7c1.94,0.01,2.09,0.23,1.37,2.06c-1.22,3.08-4.5,4.97-7.6,4.47
			c-0.84-0.14-0.94-0.49-0.77-1.19C180.05,101.89,182.93,99.68,186.25,99.7z"/>
		<path id="XMLID_144_" class="st4" d="M157.4,132.34c0.02-1.18,0.52-2.66,1.53-3.98c0.28-0.37,0.48-0.49,0.92-0.14
			c2.88,2.27,3.45,6.87,1.23,9.78c-0.46,0.61-0.77,0.62-1.32,0.1C158.28,136.71,157.4,134.83,157.4,132.34z"/>
		<path id="XMLID_143_" class="st4" d="M48.53,29.71c-0.09,1.87-0.71,3.55-2.02,4.97c-0.36,0.39-0.59,0.44-1.01,0.04
			c-2.62-2.57-2.65-7.28-0.06-9.92c0.41-0.42,0.65-0.48,1.09-0.02C47.83,26.16,48.41,27.82,48.53,29.71z"/>
		<path id="XMLID_142_" class="st4" d="M53.93,40.2c-1.88-0.08-3.52-0.71-4.92-2c-0.38-0.35-0.44-0.58-0.03-1.01
			c2.59-2.64,7.33-2.66,9.92-0.05c0.46,0.46,0.38,0.72-0.04,1.1C57.46,39.53,55.8,40.14,53.93,40.2z"/>
		<path id="XMLID_141_" class="st4" d="M159.17,48.12c2.56,0.07,4.54,1.18,6,3.29c0.34,0.49,0.32,0.74-0.23,1.06
			c-3.28,1.88-7.71,0.75-9.64-2.46c-0.27-0.45-0.22-0.67,0.21-0.91C156.65,48.46,157.86,48.12,159.17,48.12z"/>
		<path id="XMLID_140_" class="st4" d="M173.71,78.01c-3.44,0-6.43-2.49-7.03-5.82c-0.09-0.48-0.05-0.69,0.5-0.78
			c3.41-0.55,6.69,1.33,7.9,4.56C175.72,77.65,175.48,78.01,173.71,78.01z"/>
		<path id="XMLID_139_" class="st4" d="M171.02,119.51c-0.07,1-0.25,1.96-0.66,2.89c-0.2,0.44-0.4,0.47-0.81,0.3
			c-3.38-1.33-5.16-6.27-3.43-9.48c0.22-0.41,0.37-0.49,0.79-0.31C169.3,113.96,171.14,116.87,171.02,119.51z"/>
		<path id="XMLID_138_" class="st4" d="M36.33,63.24c0.76,0.08,2.03-0.18,2.41,0.62c0.35,0.74-0.44,1.71-0.97,2.46
			c-1.75,2.44-4.7,3.51-7.62,2.79c-0.62-0.15-0.87-0.34-0.62-1.08C30.49,65.24,33.11,63.31,36.33,63.24z"/>
		<path id="XMLID_137_" class="st4" d="M40.65,124.86c-0.1,2.35-1.12,4.32-3.12,5.79c-0.53,0.39-0.83,0.4-1.21-0.26
			c-1.85-3.21-0.86-7.49,2.24-9.51c0.48-0.31,0.74-0.36,1.06,0.23C40.21,122.18,40.64,123.5,40.65,124.86z"/>
		<path id="XMLID_136_" class="st4" d="M166.52,61.05c-2.92-0.06-5.06-1.38-6.44-3.95c-0.28-0.52-0.32-0.81,0.35-1.1
			c3.36-1.47,7.69,0.17,9.2,3.52c0.25,0.56,0.17,0.82-0.4,1.03C168.34,60.84,167.46,61.08,166.52,61.05z"/>
		<path id="XMLID_135_" class="st4" d="M170.71,69.31c-3.2,0-5.96-2.01-6.89-4.91c-0.17-0.51-0.13-0.71,0.43-0.9
			c3.52-1.17,7.84,1.14,8.83,4.72c0.15,0.56-0.04,0.72-0.46,0.81C171.95,69.17,171.3,69.37,170.71,69.31z"/>
		<path id="XMLID_134_" class="st4" d="M162.34,150.75c-1.89-0.1-3.62-0.71-5.04-2.11c-0.4-0.39-0.41-0.62,0-1.01
			c2.67-2.6,7.47-2.48,10.03,0.25c0.32,0.34,0.33,0.52-0.01,0.84C165.93,150.03,164.27,150.64,162.34,150.75z"/>
		<path id="XMLID_133_" class="st4" d="M28.66,111.79c0-3.26,1.92-5.98,4.69-6.97c0.61-0.22,0.84-0.1,1.03,0.53
			c1.09,3.54-0.99,7.59-4.52,8.76c-0.56,0.19-0.79,0.05-0.92-0.46C28.78,112.96,28.61,112.27,28.66,111.79z"/>
		<path id="XMLID_132_" class="st4" d="M176.54,125.36c-0.71,0.01-1.65-0.25-2.59-0.61c-0.56-0.21-0.58-0.43-0.34-0.94
			c1.58-3.4,5.98-5,9.34-3.4c0.49,0.23,0.59,0.44,0.34,0.95C182.14,123.75,179.57,125.37,176.54,125.36z"/>
		<path id="XMLID_131_" class="st4" d="M176.73,95.22c0.13,0.79-0.2,1.02-1.19,0.87c-3.44-0.53-6.18-3.65-6.12-7.11
			c0.01-0.8,0.25-1.1,1.15-0.95C174.15,88.6,176.69,91.45,176.73,95.22z"/>
		<path id="XMLID_130_" class="st4" d="M169.16,137.86c1.66-0.03,3.13,0.5,4.45,1.5c0.42,0.31,0.4,0.52,0.11,0.92
			c-2.17,2.96-7.35,3.48-10.04,1.02c-0.46-0.42-0.19-0.66,0.04-0.95C164.89,138.84,167.04,137.86,169.16,137.86z"/>
		<path id="XMLID_129_" class="st4" d="M25.66,125.36c-2.87-0.11-4.99-1.43-6.37-3.95c-0.29-0.52-0.23-0.76,0.36-1.02
			c3.49-1.5,7.6-0.03,9.27,3.35c0.26,0.52,0.28,0.8-0.35,1.03C27.62,125.12,26.68,125.37,25.66,125.36z"/>
		<path id="XMLID_128_" class="st4" d="M34.48,142.87c-2.21,0-3.89-0.81-5.33-2.2c-0.63-0.61-0.74-0.99,0.13-1.58
			c2.93-2.01,7.31-1.49,9.49,1.17c0.47,0.57,0.39,0.86-0.17,1.23C37.3,142.37,35.9,142.92,34.48,142.87z"/>
		<path id="XMLID_127_" class="st4" d="M172.57,44.29c-0.11,2.05-1.12,4.04-3.2,5.49c-0.56,0.39-0.87,0.36-1.23-0.26
			c-1.81-3.13-0.67-7.62,2.41-9.49c0.56-0.34,0.83-0.21,1.13,0.34C172.2,41.35,172.58,42.66,172.57,44.29z"/>
		<path id="XMLID_126_" class="st4" d="M26.73,103.47c0.03-3.35,2.28-6.23,5.34-6.98c0.69-0.17,1.05-0.15,1.17,0.75
			c0.46,3.48-1.58,6.75-4.99,7.8c-1.32,0.41-1.42,0.34-1.49-1.06C26.75,103.77,26.74,103.56,26.73,103.47z"/>
		<path id="XMLID_125_" class="st4" d="M41.34,37.56c0.04,1.53-0.46,2.93-1.38,4.21c-0.31,0.43-0.53,0.51-1,0.16
			c-2.9-2.2-3.51-6.96-1.26-9.85c0.39-0.5,0.68-0.48,1.11-0.09C40.45,33.47,41.39,35.25,41.34,37.56z"/>
		<path id="XMLID_124_" class="st4" d="M166.21,36.1c0.01,2.52-0.9,4.32-2.56,5.78c-0.46,0.41-0.73,0.34-1.1-0.13
			c-2.23-2.9-1.65-7.51,1.21-9.78c0.48-0.38,0.75-0.36,1.09,0.14C165.74,33.4,166.27,34.79,166.21,36.1z"/>
		<path id="XMLID_123_" class="st4" d="M173.88,111.6c0,0.89,0.09,2.12-0.57,2.48c-0.76,0.41-1.69-0.42-2.43-0.95
			c-2.45-1.71-3.55-4.87-2.75-7.72c0.18-0.66,0.47-0.81,1.13-0.57C171.99,105.81,173.88,108.54,173.88,111.6z"/>
		<path id="XMLID_122_" class="st4" d="M23.15,115.92c-3.12,0-5.89-1.93-6.84-4.66c-0.2-0.57-0.15-0.87,0.5-1.07
			c3.54-1.07,7.49,0.95,8.73,4.42c0.26,0.74,0.03,0.95-0.6,1.08C24.32,115.82,23.7,115.99,23.15,115.92z"/>
		<path id="XMLID_121_" class="st4" d="M23.76,75.32c-0.11,2.1-0.11,2.02-1.96,1.43c-3.19-1.02-5.23-4.57-4.65-7.85
			c0.1-0.59,0.33-0.65,0.86-0.55C21.27,68.95,23.76,71.95,23.76,75.32z"/>
		<path id="XMLID_120_" class="st4" d="M41.21,53.43c-1.22-0.1-2.43-0.31-3.55-0.94c-0.49-0.28-0.65-0.47-0.31-1.04
			c1.87-3.16,6.54-4.31,9.65-2.37c0.5,0.31,0.48,0.56,0.2,0.99C45.79,52.21,43.77,53.27,41.21,53.43z"/>
		<path id="XMLID_119_" class="st4" d="M26.38,65.25c-0.06,0.77,0.14,1.96-0.61,2.35c-0.66,0.34-1.56-0.41-2.28-0.87
			c-2.58-1.67-3.81-5.04-2.93-7.94c0.17-0.56,0.4-0.6,0.92-0.43C24.37,59.3,26.36,62.04,26.38,65.25z"/>
		<path id="XMLID_118_" class="st4" d="M172.34,55.22c0.12-2.86,1.42-4.97,3.98-6.3c0.5-0.26,0.76-0.3,1.05,0.31
			c1.56,3.32-0.25,7.95-3.64,9.31c-0.52,0.21-0.7,0.01-0.86-0.4C172.51,57.21,172.28,56.25,172.34,55.22z"/>
		<path id="XMLID_117_" class="st4" d="M30.23,55.21c-0.08,1.31,0.02,2.91-0.98,3.3c-0.9,0.35-1.98-0.83-2.74-1.68
			c-1.92-2.15-2.33-4.6-1.45-7.32c0.23-0.72,0.54-0.94,1.29-0.53C28.87,50.37,30.14,52.49,30.23,55.21z"/>
		<path id="XMLID_116_" class="st4" d="M29.41,134.36c-2.49-0.04-4.41-1.13-5.87-3.13c-0.39-0.54-0.29-0.81,0.26-1.14
			c3.14-1.86,7.57-0.84,9.54,2.19c0.35,0.53,0.33,0.82-0.26,1.15C31.93,134.05,30.72,134.38,29.41,134.36z"/>
		<path id="XMLID_108_" class="st4" d="M182.25,60.72c-0.03,3.14-1.97,5.88-4.75,6.82c-0.57,0.19-0.9,0.23-1.11-0.54
			c-0.97-3.63,1.14-7.51,4.74-8.65c0.52-0.17,0.72-0.05,0.84,0.4C182.15,59.43,182.28,60.13,182.25,60.72z"/>
		<path id="XMLID_102_" class="st4" d="M179.47,115.92c-0.9,0.03-2.11,0.08-2.47-0.58c-0.42-0.77,0.42-1.69,0.94-2.44
			c1.71-2.45,4.85-3.52,7.73-2.73c0.68,0.19,0.8,0.47,0.56,1.11C185.18,114.08,182.52,115.92,179.47,115.92z"/>
		<path id="XMLID_100_" class="st4" d="M173.01,134.36c-1.27,0.01-2.45-0.32-3.56-0.95c-0.5-0.28-0.64-0.49-0.29-1.05
			c2-3.16,6.56-4.2,9.67-2.2c0.47,0.3,0.51,0.52,0.21,0.99C177.79,133.12,175.44,134.39,173.01,134.36z"/>
		<path id="XMLID_99_" class="st4" d="M21.06,96.47c-3.49-0.03-6.59-2.86-6.92-6.29c-0.07-0.7,0.08-0.99,0.87-1
			c3.51-0.02,6.55,2.43,7.19,5.89C22.45,96.38,22.36,96.48,21.06,96.47z"/>
		<path id="XMLID_98_" class="st4" d="M185.44,70.14c-0.03,3.27-2.25,6.08-5.34,6.84c-0.81,0.2-1.21,0.06-1.29-0.88
			c-0.28-3.53,1.89-6.71,5.29-7.64c1.19-0.33,1.27-0.28,1.34,0.94C185.45,69.64,185.44,69.89,185.44,70.14z"/>
		<path id="XMLID_97_" class="st4" d="M181.41,96.46c-1.27,0.01-1.29-0.02-1.08-1.22c0.62-3.57,3.63-6.08,7.15-6.06
			c0.86,0.01,1.01,0.31,0.92,1.07C187.97,93.74,184.94,96.45,181.41,96.46z"/>
	</g>
	<g id="XMLID_89_">
		<g id="XMLID_93_">
			<g id="XMLID_94_">
				<path id="XMLID_95_" class="st5" d="M102.9,181.71c8.28-6.12,17.3-6.69,26.34-7.73c8.86-1.02,14.42-7.2,18.73-14.49
					c1.36-2.3,2.67-4.57,4.58-6.46c0.79-0.77,1.83-1.64,0.74-2.77c-0.91-0.95-2.07-0.45-3.05,0.14c-3.28,1.95-5.89,4.66-8.41,7.46
					c-2.63,2.93-5.8,5.02-9.62,5.96c-0.55,0.13-1.49,0.67-2.05-0.22c-0.66-1.04,0.46-1.38,0.9-1.79c1.28-1.19,2.73-2.21,4.11-3.3
					c0.6-0.48,1.38-0.93,1.03-1.85c-0.27-0.69-1.09-0.9-1.69-0.81c-10.04,1.48-19.99,3.31-26.61,12.16
					C105.07,171.78,103.86,176.26,102.9,181.71z"/>
			</g>
		</g>
		<g id="XMLID_90_">
			<g id="XMLID_91_">
				<path id="XMLID_92_" class="st5" d="M99.71,181.71c-8.29-6.12-17.32-6.69-26.37-7.73c-8.87-1.02-14.44-7.2-18.75-14.49
					c-1.36-2.3-2.67-4.57-4.59-6.46c-0.79-0.77-1.83-1.64-0.74-2.77c0.91-0.95,2.07-0.45,3.06,0.14c3.28,1.95,5.89,4.66,8.42,7.46
					c2.64,2.93,5.8,5.02,9.63,5.96c0.55,0.13,1.49,0.67,2.05-0.22c0.66-1.04-0.46-1.38-0.9-1.79c-1.28-1.19-2.73-2.21-4.11-3.3
					c-0.6-0.48-1.38-0.93-1.03-1.85c0.27-0.69,1.09-0.9,1.69-0.81c10.05,1.48,20.01,3.31,26.64,12.16
					C97.53,171.78,98.74,176.26,99.71,181.71z"/>
			</g>
		</g>
	</g>
</g>
</svg>
